# xmcd
#
# Track frame offsets:
# 150
# 21017
# 36457
# 53412
# 68560
# 85422
# 102195
# 122252
# 141845
#
# Disc length: 2049 seconds
#
#
# Revision: 0
# Processed by: cddbd v1.5.1PL2 Copyright (c) Steve Scherf et al.
# Submitted via: FreeRIP 2.945 
#
DISCID=6c07ff09
DTITLE=Gladys Knight - Midnight Train
DYEAR=1996
DGENRE=Soul
TTITLE0=Midnight Train To Georgia
TTITLE1=I've Got To Use My Imagination
TTITLE2=Best Thing That Ever Happened To Me
TTITLE3=I Feel A Song In My Heart
TTITLE4=Storms Of Troubled Times
TTITLE5=Once In A Lifetime Thing
TTITLE6=Where Peaceful Waters Flow
TTITLE7=I Can See Clearly Now
TTITLE8=Perfect Love
EXTD=
EXTT0=
EXTT1=
EXTT2=
EXTT3=
EXTT4=
EXTT5=
EXTT6=
EXTT7=
EXTT8=
PLAYORDER=
